<svg width="28" height="27" viewBox="0 0 28 27" fill="none" xmlns="http://www.w3.org/2000/svg">
<path fill-rule="evenodd" clip-rule="evenodd" d="M26.4051 14.1251H20.4373C20.5809 16.923 21.6828 19.4677 23.4213 21.4373C25.1597 19.4677 26.2616 16.923 26.4051 14.1251ZM20.4526 12.6251C20.6471 9.92556 21.7346 7.47339 23.4211 5.56249C25.1077 7.47337 26.1952 9.92554 26.3897 12.6251H20.4526ZM18.9491 12.6251H15.1712V1.52306C17.9199 1.69257 20.4183 2.78744 22.3586 4.49999C20.4027 6.68538 19.1482 9.51171 18.9491 12.6251ZM13.6712 14.1251H9.90674C9.76031 17.3369 8.49155 20.2562 6.48345 22.4998C8.4238 24.2125 10.9223 25.3074 13.6712 25.4769V14.1251ZM9.89308 12.6251H13.6712V1.52305C10.9224 1.69256 8.42397 2.78745 6.48364 4.50002C8.43953 6.68541 9.69397 9.51173 9.89308 12.6251ZM8.38957 12.6251H2.45255C2.64706 9.92556 3.73456 7.47341 5.42114 5.56253C7.10766 7.47343 8.1951 9.92558 8.38957 12.6251ZM8.40495 14.1251H2.43714C2.58072 16.923 3.68261 19.4676 5.42097 21.4373C7.15939 19.4677 8.26133 16.923 8.40495 14.1251ZM18.9355 14.1251H15.1712V25.4769C17.92 25.3074 20.4185 24.2125 22.3588 22.4998C20.3507 20.2562 19.0819 17.337 18.9355 14.1251ZM23.4211 3.43747C21.0327 1.29982 17.8787 0 14.4211 0C10.9636 0 7.80957 1.29983 5.42116 3.4375L5.42097 3.43732C5.04749 3.77159 4.69273 4.12635 4.35847 4.49983L4.35866 4.5C2.22098 6.8884 0.921143 10.0424 0.921143 13.5C0.921143 16.9575 2.2209 20.1114 4.35846 22.4998C4.52566 22.6866 4.69798 22.8687 4.8752 23.0459C7.31822 25.489 10.6932 27 14.4211 27C21.877 27 27.9211 20.9558 27.9211 13.5C27.9211 10.0424 26.6213 6.88837 24.4836 4.49996L24.4837 4.49983C24.1495 4.12635 23.7947 3.77159 23.4212 3.43732L23.4211 3.43747Z" fill="#3F000D"/>
</svg>
