<svg width="24" height="23" viewBox="0 0 24 23" fill="none" xmlns="http://www.w3.org/2000/svg">
<path d="M1.68142 3.93572H3.85493L4.86672 21.7603C4.88703 22.131 5.19463 22.4211 5.56599 22.4211H18.832C19.2033 22.4211 19.5109 22.1303 19.5312 21.7596L20.5269 3.93572H22.7018C23.0893 3.93572 23.4025 3.62181 23.4025 3.23504C23.4025 2.84826 23.0893 2.53436 22.7018 2.53436H20.0806C20.042 2.53436 20.0084 2.55047 19.9713 2.55608C19.9348 2.55047 19.9012 2.53436 19.8641 2.53436H16.1883V0.70068C16.1883 0.313905 15.8751 0 15.4876 0H8.89492C8.50745 0 8.19424 0.313905 8.19424 0.70068V2.53436H4.51708C4.48484 2.53436 4.45612 2.54907 4.42459 2.55328C4.39236 2.54837 4.36363 2.53436 4.32999 2.53436H1.68213C1.29465 2.53436 0.981445 2.84826 0.981445 3.23504C0.981445 3.62181 1.29395 3.93572 1.68142 3.93572ZM9.5956 1.40136H14.7869V2.53436H9.5956V1.40136ZM19.1234 3.93572L18.1691 21.0204H6.22814L5.2584 3.93572H19.1234Z" fill="#40000D"/>
<path d="M8.7218 19.7066C8.73582 19.7066 8.74843 19.7066 8.76244 19.7059C9.14922 19.6842 9.4442 19.3528 9.42178 18.9667L8.68467 5.97962C8.66295 5.59285 8.32242 5.30207 7.94545 5.31958C7.55867 5.3413 7.26369 5.67273 7.28611 6.0588L8.02323 19.0459C8.04425 19.4187 8.35325 19.7066 8.7218 19.7066Z" fill="#40000D"/>
<path d="M15.5945 19.7058C15.6086 19.7065 15.6212 19.7065 15.6352 19.7065C16.0037 19.7065 16.3127 19.4185 16.3338 19.0457L17.0709 6.05864C17.0926 5.67257 16.7976 5.34115 16.4115 5.31943C16.0311 5.30331 15.6947 5.59269 15.6723 5.97947L14.9352 18.9666C14.9135 19.3526 15.2085 19.6841 15.5945 19.7058Z" fill="#40000D"/>
<path d="M12.1914 19.7064C12.5789 19.7064 12.8921 19.3925 12.8921 19.0057V6.01863C12.8921 5.63185 12.5789 5.31795 12.1914 5.31795C11.8039 5.31795 11.4907 5.63185 11.4907 6.01863V19.0057C11.4907 19.3925 11.8039 19.7064 12.1914 19.7064Z" fill="#40000D"/>
</svg>
