<svg width="22" height="26" viewBox="0 0 22 26" fill="none" xmlns="http://www.w3.org/2000/svg">
<path fill-rule="evenodd" clip-rule="evenodd" d="M3.38252 4.97328C3.36893 5.02941 3.3672 5.05963 3.36698 5.06347L3.36695 5.06389L3.36694 5.06353V11.9131H0.366943V5.06346C0.366943 3.16526 2.25336 0.366974 6 0.366974H6.01709H6.03411H6.05107H6.06795H6.08477H6.10152H6.11821H6.13483H6.15138H6.16787H6.18429H6.20064H6.21693H6.23315H6.2493H6.26539H6.28142H6.29738H6.31328H6.32911H6.34488H6.36058H6.37622H6.3918H6.40731H6.42276H6.43814H6.45346H6.46872H6.48392H6.49906H6.51413H6.52914H6.54409H6.55897H6.5738H6.58856H6.60327H6.61791H6.63249H6.64701H6.66147H6.67587H6.69021H6.70449H6.71871H6.73288H6.74698H6.76102H6.77501H6.78893H6.8028H6.81661H6.83036H6.84405H6.85769H6.87127H6.88479H6.89825H6.91166H6.92501H6.9383H6.95154H6.96472H6.97785H6.99092H7.00393H7.01689H7.02979H7.04264H7.05543H7.06817H7.08086H7.09349H7.10606H7.11859H7.13105H7.14347H7.15583H7.16814H7.18039H7.1926H7.20475H7.21685H7.22889H7.24089H7.25283H7.26472H7.27656H7.28834H7.30008H7.31177H7.3234H7.33499H7.34652H7.35801H7.36944H7.38083H7.39216H7.40345H7.41468H7.42587H7.43701H7.4481H7.45914H7.47014H7.48108H7.49198H7.50283H7.51364H7.52439H7.5351H7.54576H7.55638H7.56695H7.57747H7.58795H7.59838H7.60876H7.6191H7.6294H7.63964H7.64985H7.66001H7.67012H7.68019H7.69022H7.7002H7.71014H7.72003H7.72988H7.73969H7.74946H7.75918H7.76886H7.7785H7.78809H7.79764H7.80715H7.81662H7.82605H7.83543H7.84478H7.85408H7.86335H7.87257H7.88175H7.89089H7.89999H7.90906H7.91808H7.92706H7.93601H7.94491H7.95378H7.9626H7.97139H7.98014H7.98885H7.99753H8.00616H8.01476H8.02332H8.03185H8.04034H8.04879H8.0572H8.06558H8.07392H8.08223H8.09049H8.09873H8.10693H8.11509H8.12322H8.13131H8.13937H8.14739H8.15538H8.16334H8.17126H8.17915H8.187H8.19482H8.20261H8.21037H8.21809H8.22578H8.23343H8.24106H8.24865H8.25621H8.26374H8.27124H8.2787H8.28614H8.29354H8.30092H8.30826H8.31557H8.32286H8.33011H8.33733H8.34452H8.35169H8.35882H8.36593H8.373H8.38005H8.38707H8.39406H8.40103H8.40796H8.41487H8.42175H8.42861H8.43543H8.44223H8.449H8.45575H8.46247H8.46916H8.47583H8.48247H8.48909H8.49568H8.50224H8.50879H8.5153H8.52179H8.52826H8.5347H8.54112H8.54751H8.55388H8.56023H8.56656H8.57285H8.57913H8.58539H8.59162H8.59783H8.60402H8.61019H8.61633H8.62245H8.62855H8.63463H8.64069H8.64673H8.65275H8.65874H8.66472H8.67068H8.67661H8.68253H8.68843H8.69431H8.70017H8.70601H8.71183H8.71763H8.72342H8.72918H8.73493H8.74066H8.74637H8.75207H8.75775H8.76341H8.76905H8.77468H8.78029H8.78589H8.79147H8.79703H8.80258H8.80811H8.81363H8.81913H8.82461H8.83008H8.83554H8.84098H8.84641H8.85183H8.85723H8.86262H8.86799H8.87335H8.8787H8.88403H8.88935H8.89466H8.89996H8.90524H8.91052H8.91578H8.92103H8.92627H8.93149H8.93671H8.94191H8.94711H8.95229H8.95747H8.96263H8.96779H8.97293H8.97807H8.98319H8.98831H8.99342H8.99852H9.00361H9.00869H9.01377H9.01883H9.02389H9.02894H9.03399H9.03902H9.04405H9.04908H9.05409H9.0591H9.06411H9.0691H9.07409H9.07908H9.08406H9.08904H9.09401H9.09897H9.10394H9.10889H9.11384H9.11879H9.12374H9.12868H9.13361H9.13855H9.14348H9.1484H9.15333H9.15825H9.16317H9.16809H9.173H9.17791H9.18283H9.18773H9.19264H9.19755H9.20246H9.20736H9.21227H9.21717H9.22208H9.22698H9.23189H9.2368H9.2417H9.24661H9.25152H9.25643H9.26134H9.26625H9.27116H9.27608H9.281H9.28592H9.29084H9.29577H9.3007H9.30563H9.31056H9.3155H9.32044H9.32539H9.33034H9.33529H9.34025H9.34522H9.35018H9.35516H9.36014H9.36512H9.37011H9.3751H9.3801H9.38511H9.39012H9.39514H9.40017H9.4052H9.41024H9.41529H9.42035H9.42541H9.43048H9.43556H9.44065H9.44574H9.45084H9.45596H9.46108H9.46621H9.47135H9.4765H9.48166H9.48683H9.49201H9.4972H9.5024H9.50761H9.51283H9.51806H9.52331H9.52856H9.53383H9.53911H9.5444H9.5497H9.55502H9.56035H9.56569H9.57104H9.57641H9.58179H9.58718H9.59259H9.59801H9.60345H9.6089H9.61436H9.61984H9.62534H9.63084H9.63637H9.64191H9.64746H9.65303H9.65862H9.66422H9.66984H9.67548H9.68113H9.6868H9.69249H9.69819H9.70392H9.70966H9.71541H9.72119H9.72698H9.7328H9.73863H9.74448H9.75035H9.75623H9.76214H9.76807H9.77402H9.77998H9.78597H9.79198H9.79801H9.80405H9.81012H9.81621H9.82233H9.82846H9.83462H9.84079H9.84699H9.85321H9.85946H9.86572H9.87201H9.87833H9.88466H9.89102H9.8974H9.90381H9.91024H9.9167H9.92317H9.92968H9.93621H9.94276H9.94934H9.95594H9.96257H9.96923H9.97591H9.98261H9.98935H9.99611H10.0029H10.0097H10.0165H10.0234H10.0303H10.0372H10.0442H10.0512H10.0582H10.0652H10.0723H10.0794H10.0865V3.36697H10.0794H10.0723H10.0652H10.0582H10.0512H10.0442H10.0372H10.0303H10.0234H10.0165H10.0097H10.0029H9.99611H9.98935H9.98261H9.97591H9.96923H9.96257H9.95594H9.94934H9.94276H9.93621H9.92968H9.92317H9.9167H9.91024H9.90381H9.8974H9.89102H9.88466H9.87833H9.87201H9.86572H9.85946H9.85321H9.84699H9.84079H9.83462H9.82846H9.82233H9.81621H9.81012H9.80405H9.79801H9.79198H9.78597H9.77998H9.77402H9.76807H9.76214H9.75623H9.75035H9.74448H9.73863H9.7328H9.72698H9.72119H9.71541H9.70966H9.70392H9.69819H9.69249H9.6868H9.68113H9.67548H9.66984H9.66422H9.65862H9.65303H9.64746H9.64191H9.63637H9.63084H9.62534H9.61984H9.61436H9.6089H9.60345H9.59801H9.59259H9.58718H9.58179H9.57641H9.57104H9.56569H9.56035H9.55502H9.5497H9.5444H9.53911H9.53383H9.52856H9.52331H9.51806H9.51283H9.50761H9.5024H9.4972H9.49201H9.48683H9.48166H9.4765H9.47135H9.46621H9.46108H9.45596H9.45084H9.44574H9.44065H9.43556H9.43048H9.42541H9.42035H9.41529H9.41024H9.4052H9.40017H9.39514H9.39012H9.38511H9.3801H9.3751H9.37011H9.36512H9.36014H9.35516H9.35018H9.34522H9.34025H9.33529H9.33034H9.32539H9.32044H9.3155H9.31056H9.30563H9.3007H9.29577H9.29084H9.28592H9.281H9.27608H9.27116H9.26625H9.26134H9.25643H9.25152H9.24661H9.2417H9.2368H9.23189H9.22698H9.22208H9.21717H9.21227H9.20736H9.20246H9.19755H9.19264H9.18773H9.18283H9.17791H9.173H9.16809H9.16317H9.15825H9.15333H9.1484H9.14348H9.13855H9.13361H9.12868H9.12374H9.11879H9.11384H9.10889H9.10394H9.09897H9.09401H9.08904H9.08406H9.07908H9.07409H9.0691H9.06411H9.0591H9.05409H9.04908H9.04405H9.03902H9.03399H9.02894H9.02389H9.01883H9.01377H9.00869H9.00361H8.99852H8.99342H8.98831H8.98319H8.97807H8.97293H8.96779H8.96263H8.95747H8.95229H8.94711H8.94191H8.93671H8.93149H8.92627H8.92103H8.91578H8.91052H8.90524H8.89996H8.89466H8.88935H8.88403H8.8787H8.87335H8.86799H8.86262H8.85723H8.85183H8.84641H8.84098H8.83554H8.83008H8.82461H8.81913H8.81363H8.80811H8.80258H8.79703H8.79147H8.78589H8.78029H8.77468H8.76905H8.76341H8.75775H8.75207H8.74637H8.74066H8.73493H8.72918H8.72342H8.71763H8.71183H8.70601H8.70017H8.69431H8.68843H8.68253H8.67661H8.67068H8.66472H8.65874H8.65275H8.64673H8.64069H8.63463H8.62855H8.62245H8.61633H8.61019H8.60402H8.59783H8.59162H8.58539H8.57913H8.57285H8.56656H8.56023H8.55388H8.54751H8.54112H8.5347H8.52826H8.52179H8.5153H8.50879H8.50224H8.49568H8.48909H8.48247H8.47583H8.46916H8.46247H8.45575H8.449H8.44223H8.43543H8.42861H8.42175H8.41487H8.40796H8.40103H8.39406H8.38707H8.38005H8.373H8.36593H8.35882H8.35169H8.34452H8.33733H8.33011H8.32286H8.31557H8.30826H8.30092H8.29354H8.28614H8.2787H8.27124H8.26374H8.25621H8.24865H8.24106H8.23343H8.22578H8.21809H8.21037H8.20261H8.19482H8.187H8.17915H8.17126H8.16334H8.15538H8.14739H8.13937H8.13131H8.12322H8.11509H8.10693H8.09873H8.09049H8.08223H8.07392H8.06558H8.0572H8.04879H8.04034H8.03185H8.02332H8.01476H8.00616H7.99753H7.98885H7.98014H7.97139H7.9626H7.95378H7.94491H7.93601H7.92706H7.91808H7.90906H7.89999H7.89089H7.88175H7.87257H7.86335H7.85408H7.84478H7.83543H7.82605H7.81662H7.80715H7.79764H7.78809H7.7785H7.76886H7.75918H7.74946H7.73969H7.72988H7.72003H7.71014H7.7002H7.69022H7.68019H7.67012H7.66001H7.64985H7.63964H7.6294H7.6191H7.60876H7.59838H7.58795H7.57747H7.56695H7.55638H7.54576H7.5351H7.52439H7.51364H7.50283H7.49198H7.48108H7.47014H7.45914H7.4481H7.43701H7.42587H7.41468H7.40345H7.39216H7.38083H7.36944H7.35801H7.34652H7.33499H7.3234H7.31177H7.30008H7.28834H7.27656H7.26472H7.25283H7.24089H7.22889H7.21685H7.20475H7.1926H7.18039H7.16814H7.15583H7.14347H7.13105H7.11859H7.10606H7.09349H7.08086H7.06817H7.05543H7.04264H7.02979H7.01689H7.00393H6.99092H6.97785H6.96472H6.95154H6.9383H6.92501H6.91166H6.89825H6.88479H6.87127H6.85769H6.84405H6.83036H6.81661H6.8028H6.78893H6.77501H6.76102H6.74698H6.73288H6.71871H6.70449H6.69021H6.67587H6.66147H6.64701H6.63249H6.61791H6.60327H6.58856H6.5738H6.55897H6.54409H6.52914H6.51413H6.49906H6.48392H6.46872H6.45346H6.43814H6.42276H6.40731H6.3918H6.37622H6.36058H6.34488H6.32911H6.31328H6.29738H6.28142H6.26539H6.2493H6.23315H6.21693H6.20064H6.18429H6.16787H6.15138H6.13483H6.11821H6.10152H6.08477H6.06795H6.05107H6.03411H6.01709H6C4.93456 3.36697 4.2825 3.74317 3.89659 4.12792C3.69335 4.33054 3.55318 4.54657 3.46696 4.73597C3.4241 4.83012 3.39758 4.91109 3.38252 4.97328ZM8.32235 8.58517C8.03243 8.9375 7.93345 9.38155 7.93345 9.62988V16.4795V16.4795V21.461C7.93345 21.4536 7.93347 21.4537 7.93501 21.46C7.94164 21.4873 7.97628 21.6299 8.15744 21.79C8.36386 21.9724 8.89001 22.2857 10.0866 22.2857H10.1036H10.1206H10.1375H10.1542H10.1708H10.1874H10.2038H10.2201H10.2363H10.2524H10.2684H10.2843H10.3001H10.3157H10.3313H10.3468H10.3622H10.3774H10.3926H10.4076H10.4226H10.4375H10.4522H10.4669H10.4814H10.4958H10.5102H10.5244H10.5386H10.5526H10.5666H10.5804H10.5942H10.6079H10.6214H10.6349H10.6482H10.6615H10.6747H10.6878H10.7007H10.7136H10.7264H10.7391H10.7517H10.7642H10.7767H10.789H10.8012H10.8133H10.8254H10.8373H10.8492H10.861H10.8727H10.8843H10.8958H10.9072H10.9185H10.9297H10.9409H10.952H10.9629H10.9738H10.9846H10.9953H11.0059H11.0165H11.0269H11.0373H11.0476H11.0578H11.0679H11.0779H11.0879H11.0978H11.1075H11.1172H11.1269H11.1364H11.1458H11.1552H11.1645H11.1737H11.1829H11.1919H11.2009H11.2098H11.2186H11.2273H11.236H11.2446H11.2531H11.2615H11.2699H11.2782H11.2864H11.2945H11.3025H11.3105H11.3184H11.3263H11.334H11.3417H11.3493H11.3568H11.3643H11.3717H11.379H11.3863H11.3934H11.4006H11.4076H11.4146H11.4215H11.4283H11.4351H11.4418H11.4484H11.4549H11.4614H11.4679H11.4742H11.4805H11.4867H11.4929H11.499H11.505H11.511H11.5169H11.5227H11.5285H11.5342H11.5399H11.5454H11.551H11.5564H11.5618H11.5672H11.5724H11.5777H11.5828H11.5879H11.593H11.5979H11.6029H11.6077H11.6125H11.6173H11.622H11.6266H11.6312H11.6357H11.6402H11.6446H11.649H11.6533H11.6575H11.6617H11.6659H11.67H11.674H11.678H11.6819H11.6858H11.6896H11.6934H11.6971H11.7008H11.7044H11.708H11.7115H11.715H11.7184H11.7218H11.7251H11.7284H11.7317H11.7348H11.738H11.7411H11.7441H11.7471H11.7501H11.753H11.7559H11.7587H11.7615H11.7643H11.7669H11.7696H11.7722H11.7748H11.7773H11.7798H11.7823H11.7847H11.787H11.7894H11.7916H11.7939H11.7961H11.7983H11.8004H11.8025H11.8046H11.8066H11.8086H11.8105H11.8124H11.8143H11.8161H11.8179H11.8197H11.8214H11.8231H11.8248H11.8264H11.8281H11.8296H11.8312H11.8327H11.8341H11.8356H11.837H11.8384H11.8397H11.8411H11.8424H11.8436H11.8449H11.8461H11.8472H11.8484H11.8495H11.8506H11.8517H11.8527H11.8538H11.8547H11.8557H11.8567H11.8576H11.8585H11.8593H11.8602H11.861H11.8618H11.8626H11.8634H11.8641H11.8648H11.8655H11.8662H11.8668H11.8675H11.8681H11.8687H11.8693H11.8698H11.8704H11.8709H11.8714H11.8719H11.8723H11.8728H11.8732H11.8737H11.8741H11.8745H11.8748H11.8752H11.8756H11.8759H11.8762H11.8765H11.8768H11.8771H11.8774H11.8776H11.8779H11.8781H11.8784H11.8786H11.8788H11.879H11.8792H11.8794H11.8796H11.8797H11.8799H11.88H11.8802H11.8803H11.8805H11.8806H11.8807H11.8808H11.8809H11.881H11.8811H11.8812H11.8813H11.8814H11.8815H11.8816H11.8817H11.8818H11.8819H11.882H11.882H11.8821H11.8822H11.8823H11.8824H11.8825H11.8825H11.8826H11.8827H11.8828H11.8829H11.883H11.8831H11.8832H11.8833H11.8834H11.8836H11.8837H11.8838H11.884H11.8841H11.8843H11.8844H11.8846H11.8848H11.8849H11.8851H11.8853H11.8855H11.8858H11.886H11.8862H11.8865H11.8867H11.887H11.8873H11.8876H11.8879H11.8882H11.8886H11.8889H11.8893H11.8897H11.89H11.8904H11.8909H11.8913H11.8918H11.8922H11.8927H11.8932H11.8937H11.8943H11.8948H11.8954H11.896H11.8966H11.8972H11.8979H11.8986H11.8993H11.9H11.9007H11.9015H11.9022H11.903H11.9039H11.9047H11.9056H11.9065H11.9074H11.9083H11.9093H11.9103H11.9113H11.9123H11.913H11.9134H11.9145H11.9156H11.9168H11.9179H11.9192H11.9204H11.9216H11.9229H11.9243H11.9256H11.927H11.9284H11.9298H11.9313H11.9328H11.9343H11.9359H11.9375H11.9391H11.9408H11.9425H11.9442H11.946H11.9478H11.9496H11.9515H11.9534H11.9553H11.9573H11.9593H11.9614H11.9635H11.9656H11.9678H11.97H11.9722H11.9745H11.9768H11.9792H11.9816H11.984H11.9865H11.989H11.9916H11.9942H11.9969H11.9996H12.0023H12.0051H12.0079H12.0108H12.0137H12.0166H12.0196H12.0227H12.0258H12.0289H12.0321H12.0353H12.0386H12.0419H12.0453H12.0487H12.0522H12.0557H12.0593H12.0629H12.0666H12.0703H12.0741H12.0779H12.0817H12.0857H12.0896H12.0937H12.0978H12.1019H12.1061H12.1103H12.1146H12.119H12.1234H12.1278H12.1324H12.1369H12.1416H12.1462H12.151H12.1558H12.1606H12.1656H12.1705H12.1756H12.1807H12.1858H12.191H12.1963H12.2016H12.207H12.2125H12.218H12.2236H12.2292H12.2349H12.2407H12.2465H12.2524H12.2584H12.2644H12.2705H12.2766H12.2828H12.2891H12.2955H12.3019H12.3084H12.3149H12.3215H12.3282H12.335H12.3418H12.3487H12.3556H12.3627H12.3698H13.5569H16.4794C17.5308 22.2857 18.0042 21.9249 18.2436 21.6339C18.5335 21.2816 18.6325 20.8376 18.6325 20.5892V18.306V18.306V14.8356V10.0865C18.6325 9.03513 18.2717 8.5617 17.9807 8.32229C17.6284 8.03238 17.1843 7.93339 16.936 7.93339H14.653H14.6528H14.6459H14.6387H14.6317H14.6246H14.6175H14.6105H14.6035H14.5965H14.5895H14.5825H14.5756H14.5686H14.5617H14.5548H14.5479H14.541H14.5342H14.5273H14.5205H14.5137H14.5069H14.5001H14.4934H14.4866H14.4799H14.4732H14.4665H14.4598H14.4531H14.4464H14.4398H14.4331H14.4265H14.4199H14.4133H14.4067H14.4001H14.3936H14.387H14.3805H14.374H14.3675H14.361H14.3545H14.348H14.3415H14.3351H14.3287H14.3222H14.3158H14.3094H14.303H14.2966H14.2902H14.2839H14.2775H14.2712H14.2648H14.2585H14.2522H14.2459H14.2396H14.2333H14.227H14.2207H14.2145H14.2082H14.202H14.1957H14.1895H14.1833H14.1771H14.1709H14.1647H14.1585H14.1523H14.1461H14.1399H14.1338H14.1276H14.1215H14.1153H14.1092H14.103H14.0969H14.0908H14.0847H14.0785H14.0724H14.0663H14.0602H14.0541H14.0481H14.042H14.0359H14.0298H14.0238H14.0177H14.0116H14.0056H13.9995H13.9935H13.9874H13.9814H13.9753H13.9693H13.9632H13.9572H13.9512H13.9451H13.9391H13.9331H13.927H13.921H13.915H13.909H13.9029H13.8969H13.8909H13.8849H13.8789H13.8728H13.8668H13.8608H13.8548H13.8488H13.8428H13.8367H13.8307H13.8247H13.8187H13.8126H13.8066H13.8006H13.7946H13.7885H13.7825H13.7765H13.7704H13.7644H13.7584H13.7523H13.7463H13.7402H13.7342H13.7281H13.7221H13.716H13.7099H13.7039H13.6978H13.6917H13.6856H13.6795H13.6735H13.6674H13.6613H13.6552H13.649H13.6429H13.6368H13.6307H13.6245H13.6184H13.6123H13.6061H13.6H13.5938H13.5876H13.5815H13.5753H13.5691H13.5629H13.5567H13.5505H13.5443H13.538H13.5318H13.5255H13.5193H13.513H13.5068H13.5005H13.4942H13.4879H13.4816H13.4753H13.469H13.4626H13.4563H13.45H13.4436H13.4372H13.4308H13.4244H13.418H13.4116H13.4052H13.3988H13.3923H13.3859H13.3794H13.3729H13.3664H13.3599H13.3534H13.3469H13.3403H13.3338H13.3272H13.3207H13.3141H13.3075H13.3008H13.2942H13.2876H13.2809H13.2742H13.2676H13.2609H13.2541H13.2474H13.2407H13.2339H13.2271H13.2204H13.2136H13.2067H13.1999H13.1931H13.1862H13.1793H13.1724H13.1655H13.1586H13.1516H13.1447H13.1377H13.1307H13.1237H13.1167H13.1096H13.1026H13.0955H13.0884H13.0813H13.0741H13.067H13.0598H13.0526H13.0454H13.0382H13.0309H13.0237H13.0164H13.0091H13.0017H12.9944H12.987H12.9797H12.9723H12.9648H12.9574H12.9499H12.9424H12.9349H12.9274H12.9199H12.9123H12.9047H12.8971H12.8895H12.8818H12.8741H12.8664H12.8587H12.851H12.8432H12.8354H12.8276H12.8198H12.8119H12.804H12.7961H12.7882H12.7802H12.7723H12.7643H12.7562H12.7482H12.7401H12.732H12.7239H12.7157H12.7076H12.6994H12.6911H12.6829H12.6746H12.6663H12.658H12.6496H12.6413H12.6328H12.6244H12.616H12.6075H12.599H12.5904H12.5818H12.5733H12.5646H12.556H12.5473H12.5386H12.5299H12.5211H12.5123H12.5035H12.4946H12.4858H12.4769H12.4679H12.459H12.45H12.4409H12.4319H12.4228H12.4137H12.4045H12.3954H12.3862H12.3769H12.3677H12.3584H12.349H12.3397H12.3303H12.3209H12.3114H12.3019H12.2924H12.2828H12.2733H12.2636H12.254H12.2443H12.2346H12.2249H12.2151H12.2053H12.1954H12.1855H12.1756H12.1657H12.1557H12.1457H12.1356H12.1255H12.1154H12.1053H12.0951H12.0848H12.0746H12.0643H12.054H12.0436H12.0332H12.0228H12.0123H12.0018H11.9912H11.9806H11.97H11.9594H11.9487H11.9379H11.9272H11.9164H11.9055H11.8946H11.8837H11.8728H11.8618H11.8507H11.8397H11.8285H11.8174H11.8062H11.795H11.7837H11.7724H11.7611H11.7497H11.7382H11.7268H11.7153H11.7037H11.6921H11.6805H11.6689H11.6571H11.6454H11.6336H11.6218H11.6099H11.598H11.586H11.574H11.562H11.5499H11.5378H11.5256H11.5134H11.5012H11.4889H11.4765H11.4641H11.4517H11.4393H11.4267H11.4142H11.4016H11.3889H11.3763H11.3635H11.3508H11.3379H11.3251H11.3122H11.2992H11.2862H11.2732H11.2601H11.2469H11.2337H11.2205H11.2072H11.1939H11.1805H11.1671H11.1537H11.1402H11.1266H11.113H11.0994H11.0857H11.0719H11.0581H11.0443H11.0304H11.0165H11.0025H10.9884H10.9744H10.9602H10.9461H10.9318H10.9175H10.9032H10.8888H10.8744H10.8599H10.8454H10.8308H10.8162H10.8015H10.7868H10.772H10.7572H10.7423H10.7274H10.7124H10.6974H10.6823H10.6672H10.652H10.6367H10.6214H10.6061H10.5907H10.5752H10.5597H10.5442H10.5286H10.5129H10.4972H10.4814H10.4656H10.4497H10.4338H10.4178H10.4018H10.3857H10.3695H10.3533H10.3371H10.3208H10.3044H10.288H10.2715H10.255H10.2384H10.2217H10.205H10.1883H10.1715H10.1546H10.1377H10.1207H10.1037H10.0866C9.03519 7.93339 8.56175 8.29423 8.32235 8.58517ZM12.3698 25.2857H13.5569H16.4794C18.3505 25.2857 19.7036 24.5811 20.5602 23.5401C21.3662 22.5606 21.6325 21.4064 21.6325 20.5892V18.306V18.306V14.8356V10.0865C21.6325 8.2154 20.9278 6.86227 19.8869 6.00574C18.9491 5.23407 17.8512 4.95707 17.0423 4.93487C16.9109 3.36393 16.2497 2.20382 15.3206 1.43932C14.3411 0.633301 13.1869 0.366974 12.3697 0.366974H10.0865L10.0865 3.36697H12.3697C12.6181 3.36697 13.0621 3.46596 13.4144 3.75588C13.6446 3.94524 13.9184 4.28101 14.0229 4.93339H14.0177H14.0116H14.0056H13.9995H13.9935H13.9874H13.9814H13.9753H13.9693H13.9632H13.9572H13.9512H13.9451H13.9391H13.9331H13.927H13.921H13.915H13.909H13.9029H13.8969H13.8909H13.8849H13.8789H13.8728H13.8668H13.8608H13.8548H13.8488H13.8428H13.8367H13.8307H13.8247H13.8187H13.8126H13.8066H13.8006H13.7946H13.7885H13.7825H13.7765H13.7704H13.7644H13.7584H13.7523H13.7463H13.7402H13.7342H13.7281H13.7221H13.716H13.7099H13.7039H13.6978H13.6917H13.6856H13.6795H13.6735H13.6674H13.6613H13.6552H13.649H13.6429H13.6368H13.6307H13.6245H13.6184H13.6123H13.6061H13.6H13.5938H13.5876H13.5815H13.5753H13.5691H13.5629H13.5567H13.5505H13.5443H13.538H13.5318H13.5255H13.5193H13.513H13.5068H13.5005H13.4942H13.4879H13.4816H13.4753H13.469H13.4626H13.4563H13.45H13.4436H13.4372H13.4308H13.4244H13.418H13.4116H13.4052H13.3988H13.3923H13.3859H13.3794H13.3729H13.3664H13.3599H13.3534H13.3469H13.3403H13.3338H13.3272H13.3207H13.3141H13.3075H13.3008H13.2942H13.2876H13.2809H13.2742H13.2676H13.2609H13.2541H13.2474H13.2407H13.2339H13.2271H13.2204H13.2136H13.2067H13.1999H13.1931H13.1862H13.1793H13.1724H13.1655H13.1586H13.1516H13.1447H13.1377H13.1307H13.1237H13.1167H13.1096H13.1026H13.0955H13.0884H13.0813H13.0741H13.067H13.0598H13.0526H13.0454H13.0382H13.0309H13.0237H13.0164H13.0091H13.0017H12.9944H12.987H12.9797H12.9723H12.9648H12.9574H12.9499H12.9424H12.9349H12.9274H12.9199H12.9123H12.9047H12.8971H12.8895H12.8818H12.8741H12.8664H12.8587H12.851H12.8432H12.8354H12.8276H12.8198H12.8119H12.804H12.7961H12.7882H12.7802H12.7723H12.7643H12.7562H12.7482H12.7401H12.732H12.7239H12.7157H12.7076H12.6994H12.6911H12.6829H12.6746H12.6663H12.658H12.6496H12.6413H12.6328H12.6244H12.616H12.6075H12.599H12.5904H12.5818H12.5733H12.5646H12.556H12.5473H12.5386H12.5299H12.5211H12.5123H12.5035H12.4946H12.4858H12.4769H12.4679H12.459H12.45H12.4409H12.4319H12.4228H12.4137H12.4045H12.3954H12.3862H12.3769H12.3677H12.3584H12.349H12.3397H12.3303H12.3209H12.3114H12.3019H12.2924H12.2828H12.2733H12.2636H12.254H12.2443H12.2346H12.2249H12.2151H12.2053H12.1954H12.1855H12.1756H12.1657H12.1557H12.1457H12.1356H12.1255H12.1154H12.1053H12.0951H12.0848H12.0746H12.0643H12.054H12.0436H12.0332H12.0228H12.0123H12.0018H11.9912H11.9806H11.97H11.9594H11.9487H11.9379H11.9272H11.9164H11.9055H11.8946H11.8837H11.8728H11.8618H11.8507H11.8397H11.8285H11.8174H11.8062H11.795H11.7837H11.7724H11.7611H11.7497H11.7382H11.7268H11.7153H11.7037H11.6921H11.6805H11.6689H11.6571H11.6454H11.6336H11.6218H11.6099H11.598H11.586H11.574H11.562H11.5499H11.5378H11.5256H11.5134H11.5012H11.4889H11.4765H11.4641H11.4517H11.4393H11.4267H11.4142H11.4016H11.3889H11.3763H11.3635H11.3508H11.3379H11.3251H11.3122H11.2992H11.2862H11.2732H11.2601H11.2469H11.2337H11.2205H11.2072H11.1939H11.1805H11.1671H11.1537H11.1402H11.1266H11.113H11.0994H11.0857H11.0719H11.0581H11.0443H11.0304H11.0165H11.0025H10.9884H10.9744H10.9602H10.9461H10.9318H10.9175H10.9032H10.8888H10.8744H10.8599H10.8454H10.8308H10.8162H10.8015H10.7868H10.772H10.7572H10.7423H10.7274H10.7124H10.6974H10.6823H10.6672H10.652H10.6367H10.6214H10.6061H10.5907H10.5752H10.5597H10.5442H10.5286H10.5129H10.4972H10.4814H10.4656H10.4497H10.4338H10.4178H10.4018H10.3857H10.3695H10.3533H10.3371H10.3208H10.3044H10.288H10.2715H10.255H10.2384H10.2217H10.205H10.1883H10.1715H10.1546H10.1377H10.1207H10.1037H10.0866C8.21546 4.93339 6.86233 5.63805 6.0058 6.67898C5.19978 7.65852 4.93345 8.81271 4.93345 9.62988V16.4795V16.4795V17.6911C4.14329 17.6101 3.75994 17.373 3.59094 17.2236C3.40977 17.0635 3.37513 16.9209 3.36851 16.8936C3.36697 16.8873 3.36694 16.8872 3.36694 16.8946V11.9131H0.366943V16.8946C0.366943 17.7087 0.731645 18.7003 1.6042 19.4715C2.38996 20.166 3.49635 20.6072 4.93345 20.7007V21.461C4.93345 22.2751 5.29815 23.2667 6.1707 24.0379C7.06023 24.8241 8.36064 25.2857 10.0866 25.2857H10.1036H10.1206H10.1375H10.1542H10.1708H10.1874H10.2038H10.2201H10.2363H10.2524H10.2684H10.2843H10.3001H10.3157H10.3313H10.3468H10.3622H10.3774H10.3926H10.4076H10.4226H10.4375H10.4522H10.4669H10.4814H10.4958H10.5102H10.5244H10.5386H10.5526H10.5666H10.5804H10.5942H10.6079H10.6214H10.6349H10.6482H10.6615H10.6747H10.6878H10.7007H10.7136H10.7264H10.7391H10.7517H10.7642H10.7767H10.789H10.8012H10.8133H10.8254H10.8373H10.8492H10.861H10.8727H10.8843H10.8958H10.9072H10.9185H10.9297H10.9409H10.952H10.9629H10.9738H10.9846H10.9953H11.0059H11.0165H11.0269H11.0373H11.0476H11.0578H11.0679H11.0779H11.0879H11.0978H11.1075H11.1172H11.1269H11.1364H11.1458H11.1552H11.1645H11.1737H11.1829H11.1919H11.2009H11.2098H11.2186H11.2273H11.236H11.2446H11.2531H11.2615H11.2699H11.2782H11.2864H11.2945H11.3025H11.3105H11.3184H11.3263H11.334H11.3417H11.3493H11.3568H11.3643H11.3717H11.379H11.3863H11.3934H11.4006H11.4076H11.4146H11.4215H11.4283H11.4351H11.4418H11.4484H11.4549H11.4614H11.4679H11.4742H11.4805H11.4867H11.4929H11.499H11.505H11.511H11.5169H11.5227H11.5285H11.5342H11.5399H11.5454H11.551H11.5564H11.5618H11.5672H11.5724H11.5777H11.5828H11.5879H11.593H11.5979H11.6029H11.6077H11.6125H11.6173H11.622H11.6266H11.6312H11.6357H11.6402H11.6446H11.649H11.6533H11.6575H11.6617H11.6659H11.67H11.674H11.678H11.6819H11.6858H11.6896H11.6934H11.6971H11.7008H11.7044H11.708H11.7115H11.715H11.7184H11.7218H11.7251H11.7284H11.7317H11.7348H11.738H11.7411H11.7441H11.7471H11.7501H11.753H11.7559H11.7587H11.7615H11.7643H11.7669H11.7696H11.7722H11.7748H11.7773H11.7798H11.7823H11.7847H11.787H11.7894H11.7916H11.7939H11.7961H11.7983H11.8004H11.8025H11.8046H11.8066H11.8086H11.8105H11.8124H11.8143H11.8161H11.8179H11.8197H11.8214H11.8231H11.8248H11.8264H11.8281H11.8296H11.8312H11.8327H11.8341H11.8356H11.837H11.8384H11.8397H11.8411H11.8424H11.8436H11.8449H11.8461H11.8472H11.8484H11.8495H11.8506H11.8517H11.8527H11.8538H11.8547H11.8557H11.8567H11.8576H11.8585H11.8593H11.8602H11.861H11.8618H11.8626H11.8634H11.8641H11.8648H11.8655H11.8662H11.8668H11.8675H11.8681H11.8687H11.8693H11.8698H11.8704H11.8709H11.8714H11.8719H11.8723H11.8728H11.8732H11.8737H11.8741H11.8745H11.8748H11.8752H11.8756H11.8759H11.8762H11.8765H11.8768H11.8771H11.8774H11.8776H11.8779H11.8781H11.8784H11.8786H11.8788H11.879H11.8792H11.8794H11.8796H11.8797H11.8799H11.88H11.8802H11.8803H11.8805H11.8806H11.8807H11.8808H11.8809H11.881H11.8811H11.8812H11.8813H11.8814H11.8815H11.8816H11.8817H11.8818H11.8819H11.882H11.882H11.8821H11.8822H11.8823H11.8824H11.8825H11.8825H11.8826H11.8827H11.8828H11.8829H11.883H11.8831H11.8832H11.8833H11.8834H11.8836H11.8837H11.8838H11.884H11.8841H11.8843H11.8844H11.8846H11.8848H11.8849H11.8851H11.8853H11.8855H11.8858H11.886H11.8862H11.8865H11.8867H11.887H11.8873H11.8876H11.8879H11.8882H11.8886H11.8889H11.8893H11.8897H11.89H11.8904H11.8909H11.8913H11.8918H11.8922H11.8927H11.8932H11.8937H11.8943H11.8948H11.8954H11.896H11.8966H11.8972H11.8979H11.8986H11.8993H11.9H11.9007H11.9015H11.9022H11.903H11.9039H11.9047H11.9056H11.9065H11.9074H11.9083H11.9093H11.9103H11.9113H11.9123H11.913H11.9134H11.9145H11.9156H11.9168H11.9179H11.9192H11.9204H11.9216H11.9229H11.9243H11.9256H11.927H11.9284H11.9298H11.9313H11.9328H11.9343H11.9359H11.9375H11.9391H11.9408H11.9425H11.9442H11.946H11.9478H11.9496H11.9515H11.9534H11.9553H11.9573H11.9593H11.9614H11.9635H11.9656H11.9678H11.97H11.9722H11.9745H11.9768H11.9792H11.9816H11.984H11.9865H11.989H11.9916H11.9942H11.9969H11.9996H12.0023H12.0051H12.0079H12.0108H12.0137H12.0166H12.0196H12.0227H12.0258H12.0289H12.0321H12.0353H12.0386H12.0419H12.0453H12.0487H12.0522H12.0557H12.0593H12.0629H12.0666H12.0703H12.0741H12.0779H12.0817H12.0857H12.0896H12.0937H12.0978H12.1019H12.1061H12.1103H12.1146H12.119H12.1234H12.1278H12.1324H12.1369H12.1416H12.1462H12.151H12.1558H12.1606H12.1656H12.1705H12.1756H12.1807H12.1858H12.191H12.1963H12.2016H12.207H12.2125H12.218H12.2236H12.2292H12.2349H12.2407H12.2465H12.2524H12.2584H12.2644H12.2705H12.2766H12.2828H12.2891H12.2955H12.3019H12.3084H12.3149H12.3215H12.3282H12.335H12.3418H12.3487H12.3556H12.3627H12.3698Z" fill="#40000D"/>
</svg>
